<svg width="24" height="24" fill="none" xmlns="http://www.w3.org/2000/svg"><g clip-path="url(#clip0)"><path stroke="#333" d="M22.0062 8.54184C22.0062 7.07638 21.4261 5.66929 20.3904 4.62248C19.8173 4.04277 19.1196 3.59837 18.3493 3.3223C17.5789 3.04623 16.7556 2.94558 15.9406 3.02783C15.1255 3.11007 14.3397 3.3731 13.6414 3.79738C12.9431 4.22166 12.3503 4.79628 11.907 5.47856C11.4637 4.79628 10.8709 4.22166 10.1726 3.79738C9.47434 3.3731 8.68848 3.11007 7.87344 3.02783C7.0584 2.94558 6.23511 3.04623 5.46474 3.3223C4.69437 3.59837 3.9967 4.04277 3.42357 4.62248C2.38792 5.66929 1.80786 7.07638 1.80786 8.54184C1.80786 10.0073 2.38792 11.4144 3.42357 12.4612L11.907 21L14.1513 18.7411" stroke-miterlimit="10" stroke-linecap="round" stroke-linejoin="round"/><path d="M17.5177 13.125H14.1513V15.375H17.5177V18.75H19.7619V15.375H23.1283V13.125H19.7619V9.75H17.5177V13.125Z" fill="#40AA60"/></g><defs><clipPath id="clip0"><path d="M0 0H23.9387V24H0V0Z" fill="#fff"/></clipPath></defs></svg>